<svg id="Group_4" data-name="Group 4" xmlns="http://www.w3.org/2000/svg" width="37.565" height="36" viewBox="0 0 37.565 36">
  <rect id="Rectangle_Copy_2" data-name="Rectangle Copy 2" width="37.565" height="36" rx="12" fill="rgba(182,182,182,0.4)"/>
  <g id="Setting_-_2_2x" data-name="Setting - 2@2x" transform="translate(10 9)">
    <path id="Path" d="M10.752,1.693A1.688,1.688,0,0,0,9.316.024a2.111,2.111,0,0,0-.632,0,1.689,1.689,0,0,0-1.436,1.67V2.874a6.332,6.332,0,0,0-1.341.556l-.835-.835a1.689,1.689,0,0,0-2.2-.165,2.111,2.111,0,0,0-.447.447,1.689,1.689,0,0,0,.165,2.2l.835.835a6.329,6.329,0,0,0-.556,1.341H1.693A1.688,1.688,0,0,0,.024,8.684a2.111,2.111,0,0,0,0,.632,1.689,1.689,0,0,0,1.669,1.436H2.874a6.329,6.329,0,0,0,.556,1.341l-.835.835a1.689,1.689,0,0,0-.165,2.2,2.11,2.11,0,0,0,.447.447,1.688,1.688,0,0,0,2.2-.165l.835-.835a6.333,6.333,0,0,0,1.341.556v1.181a1.689,1.689,0,0,0,1.436,1.67,2.113,2.113,0,0,0,.632,0,1.688,1.688,0,0,0,1.436-1.67V15.126a6.335,6.335,0,0,0,1.341-.556l.835.835a1.689,1.689,0,0,0,2.2.165,2.11,2.11,0,0,0,.447-.447,1.688,1.688,0,0,0-.165-2.2l-.835-.835a6.339,6.339,0,0,0,.556-1.341h1.181a1.689,1.689,0,0,0,1.67-1.436,2.113,2.113,0,0,0,0-.632,1.688,1.688,0,0,0-1.67-1.436H15.126a6.332,6.332,0,0,0-.556-1.341l.835-.835a1.688,1.688,0,0,0,.165-2.2,2.11,2.11,0,0,0-.447-.447,1.689,1.689,0,0,0-2.2.165l-.835.835a6.328,6.328,0,0,0-1.341-.556Z" fill="none" stroke="#fff" stroke-linecap="round" stroke-linejoin="round" stroke-miterlimit="10" stroke-width="1.5"/>
    <path id="Path-2" data-name="Path" d="M0,2.5A2.5,2.5,0,1,1,2.5,5,2.5,2.5,0,0,1,0,2.5Z" transform="translate(6.5 6.5)" fill="none" stroke="#fff" stroke-miterlimit="10" stroke-width="1.5"/>
  </g>
</svg>
