<?xml version="1.0" encoding="UTF-8"?>
<svg width="51px" height="51px" viewBox="0 0 51 51" version="1.1" xmlns="http://www.w3.org/2000/svg" xmlns:xlink="http://www.w3.org/1999/xlink">
    <title>Share Copy@2x</title>
    <g id="Page-2" stroke="none" stroke-width="1" fill="none" fill-rule="evenodd">
        <g id="Celebrity--profile---donate-button-with-total-no-of-donations---Maria" transform="translate(-308.000000, -489.000000)">
            <g id="Donation-" transform="translate(16.000000, 489.000000)">
                <g id="Share-Copy" transform="translate(292.000000, 0.000000)">
                    <circle id="Oval" fill-opacity="0.4" fill="#B6B6B6" cx="25.5" cy="25.5" r="25.5"></circle>
                    <g id="handshake" transform="translate(13.000000, 15.000000)" fill="#FFFFFF" fill-rule="nonzero">
                        <path d="M7.47367261,11.119042 C7.48680285,10.5930801 7.17898697,10.1106735 6.69273048,9.89515562 C6.20647403,9.67963774 5.63668685,9.77307453 5.24715602,10.1322087 L3.02063943,12.2073057 C2.48951609,12.7017853 2.46507421,13.5276203 2.96604697,14.0518598 C3.46701972,14.5760993 4.3036989,14.6002244 4.83482227,14.1057447 L7.06133886,12.0306478 C7.31654275,11.7932788 7.46500516,11.4650515 7.47367261,11.119042 L7.47367261,11.119042 Z" id="Shape"></path>
                        <path d="M17.6180247,0.0280501973 C15.8748497,-0.0247263399 14.182413,0.611314554 12.9162211,1.79505232 C3.50019685,10.5713179 12.6083624,2.08243846 8.46318796,5.94651415 C8.29359899,6.10742566 8.19370431,6.32689003 8.18444521,6.5589002 C8.16046734,7.50558395 9.84748183,8.24644851 10.9114999,7.25327583 L14.1078357,4.27544828 C14.3555613,4.04459547 14.6860534,3.92033503 15.0266026,3.93000456 C15.3671519,3.93967413 15.6898604,4.0824815 15.9237312,4.32700873 L22.2397594,10.9343542 C26.0376829,6.9122161 23.3204763,0.192451974 17.6180247,0.0280501973 Z" id="Shape"></path>
                        <path d="M12.2773822,16.1449184 C12.2905124,15.6189565 11.9826965,15.1365499 11.49644,14.921032 C11.0101836,14.7055142 10.4403964,14.7989509 10.0508656,15.1580852 L7.82434897,17.2331821 C7.48084888,17.5530543 7.33633237,18.0295084 7.44523738,18.4830687 C7.55414239,18.9366291 7.89992371,19.2983889 8.3523288,19.432077 C8.80473394,19.565765 9.29503173,19.4510708 9.63853182,19.1311985 L11.8650484,17.0561015 C12.1203465,16.818974 12.2688387,16.490833 12.2773822,16.1449184 L12.2773822,16.1449184 Z" id="Shape"></path>
                        <path d="M21.9250498,11.8353942 C21.8822322,11.8053877 22.015395,11.9317531 15.3003066,4.90727516 C15.2223059,4.82576209 15.1146853,4.7781838 15.0011344,4.77501325 C14.8875834,4.77184271 14.7774099,4.81333978 14.6948654,4.89037009 L11.4985295,7.86735239 C10.9948812,8.33788379 10.3221596,8.59113002 9.62897556,8.57114642 C8.9357915,8.55116285 8.27919137,8.25959406 7.80422469,7.76085046 C7.48664181,7.4301128 7.31542902,6.98824508 7.32836191,6.53273902 C7.34129481,6.07723292 7.53731052,5.64552315 7.87316106,5.33286022 L11.3799247,2.06426552 C9.77294829,0.362421164 7.36571567,-0.359736237 5.07107362,0.171642669 C2.77643161,0.703021575 0.945776306,2.40656266 0.273310634,4.63626601 C-0.399155039,6.86596933 0.189548741,9.28038337 1.81617959,10.963938 L2.42333353,11.597878 C2.46101305,11.5556154 2.42718712,11.5932291 4.65670094,9.51601904 C5.34081958,8.87914571 6.36216958,8.74844866 7.18820933,9.19207468 C8.01424904,9.63570066 8.45781825,10.5531349 8.28763569,11.4660185 C8.97478799,11.3762884 9.66377563,11.6178758 10.1395746,12.1153845 C10.6153736,12.6128933 10.8200417,13.3057372 10.6897046,13.9776888 C11.3771628,13.8887043 12.0661056,14.1309047 12.5417911,14.6287969 C13.0174767,15.1266892 13.2220602,15.819728 13.0917734,16.4918949 C13.7615717,16.4037767 14.4344326,16.631107 14.9090317,17.1058672 C15.3836308,17.5806274 15.6049198,18.2477506 15.5066876,18.907629 C16.0739221,19.2330523 16.7972069,19.0978967 17.2046727,18.5903376 C17.6121386,18.0827784 17.5801071,17.3568753 17.1294756,16.8862056 L11.424455,10.9199849 C11.3194393,10.8101397 11.281772,10.6533394 11.325642,10.5086493 C11.369512,10.3639592 11.4882545,10.253361 11.6371403,10.2185161 C11.786026,10.1836711 11.9424358,10.2298732 12.0474515,10.3397184 L17.7524721,16.3076297 C18.0766976,16.6466022 18.5595086,16.7890953 19.019035,16.6814333 C19.4785613,16.5737713 19.8449899,16.2323105 19.9802907,15.785676 C20.1155915,15.3390416 19.999209,14.8550877 19.6749835,14.5161152 L13.9695348,8.54862659 C13.8107787,8.37834861 13.8202815,8.11371525 13.990853,7.95495858 C14.1614245,7.79620196 14.4296285,7.80236424 14.5925312,7.96878279 L20.2984082,13.9362714 C20.6661417,14.3197767 21.2316719,14.4469609 21.7314262,14.2585481 C22.2311806,14.0701353 22.5668029,13.603207 22.5818722,13.0753809 C22.5621498,12.5858109 22.3211056,12.1307539 21.9250498,11.8353942 L21.9250498,11.8353942 Z" id="Shape"></path>
                        <path d="M13.3966349,17.3155943 C13.046114,17.3045811 12.7056922,17.4324109 12.4512217,17.6706007 L10.2247051,19.7461203 C9.88120504,20.0660681 9.73672929,20.5425919 9.84570058,20.99619 C9.95467182,21.449788 10.3005348,21.8115479 10.7530061,21.9451982 C11.2054775,22.0788485 11.6958161,21.9640845 12.0393161,21.6441367 L14.2658327,19.5690398 C14.6528739,19.2060855 14.7811804,18.6491914 14.5912257,18.156723 C14.401271,17.6642545 13.930229,17.332587 13.3966349,17.3155943 L13.3966349,17.3155943 Z" id="Shape"></path>
                        <path d="M9.87531329,13.6319802 C9.88844353,13.1060183 9.58062765,12.6236117 9.09437116,12.4080938 C8.60811471,12.1925759 8.03832753,12.2860127 7.6487967,12.6451469 L5.42228011,14.7202439 C4.90038642,15.2166491 4.88064642,16.0352342 5.3780212,16.5555858 C5.87539598,17.0759374 6.70447497,17.1040795 7.23689113,16.6186829 L9.46340772,14.5431633 C9.71838909,14.3058533 9.86669179,13.9777904 9.87531329,13.6319802 L9.87531329,13.6319802 Z" id="Shape"></path>
                    </g>
                </g>
            </g>
        </g>
    </g>
</svg>