<svg xmlns="http://www.w3.org/2000/svg" width="25" height="25" viewBox="0 0 25 25">
  <g id="Shape" transform="translate(0.5 0.5)">
    <path id="Shape-2" data-name="Shape" d="M11.776,24h0a11.293,11.293,0,0,1-7.844-3.016c-.757-.719-.906-1.193-.9-1.465a.562.562,0,0,1,.2-.427l.04-.031L3.368,19a.471.471,0,0,1,.236-.067c.24,0,.563.2,1.079.659l.282.261a9.8,9.8,0,0,0,6.816,2.6,11.8,11.8,0,0,0,4.42-.874,11.149,11.149,0,0,0,3.764-2.518l.211-.222,1.08-1.352L21.637,17H17.915a.766.766,0,0,1-.752-.668l-.006-.105a.771.771,0,0,1,.655-.766l.1-.006h5.074A1.022,1.022,0,0,1,24,16.489v4.662a.758.758,0,0,1-1.51.105l-.006-.105V18.4l-1.166,1.455a12.759,12.759,0,0,1-4.379,3.083A13.257,13.257,0,0,1,11.776,24ZM6.085,8.543H1.011A1.022,1.022,0,0,1,0,7.512V2.849a.767.767,0,0,1,.759-.773.764.764,0,0,1,.751.669l.007.1V5.6L2.683,4.146A12.756,12.756,0,0,1,7.062,1.063,13.26,13.26,0,0,1,12.225,0a11.293,11.293,0,0,1,7.844,3.016c.756.719.905,1.193.9,1.465a.563.563,0,0,1-.2.427l-.04.031-.1.061a.468.468,0,0,1-.235.066c-.24,0-.563-.2-1.08-.66l-.282-.261a9.806,9.806,0,0,0-6.816-2.6,11.8,11.8,0,0,0-4.42.874A11.152,11.152,0,0,0,4.035,4.939l-.21.222L2.744,6.513,2.363,7H6.085a.766.766,0,0,1,.751.668l.007.105a.771.771,0,0,1-.655.766Z" fill="#fff" stroke="#fff" stroke-miterlimit="10" stroke-width="1"/>
  </g>
</svg>
