<?xml version="1.0" encoding="UTF-8"?>
<svg width="39px" height="39px" viewBox="0 0 39 39" version="1.1" xmlns="http://www.w3.org/2000/svg" xmlns:xlink="http://www.w3.org/1999/xlink">
    <title>Bank icon</title>
    <g id="v2" stroke="none" stroke-width="1" fill="none" fill-rule="evenodd">
        <g id="Donation-selected" transform="translate(-20.000000, -301.000000)">
            <g id="Your-bank-account" transform="translate(20.000000, 238.000000)">
                <g id="Bank-icon" transform="translate(0.000000, 63.000000)">
                    <circle id="Oval" fill="#EEF2F5" cx="19.5" cy="19.5" r="19.5"></circle>
                    <g id="noun_Bank_496639" transform="translate(11.000000, 11.000000)" fill="#2B343F" fill-opacity="0.274984293" fill-rule="nonzero">
                        <path d="M16.3461625,15.6922037 L0.654063489,15.6922037 C0.29314521,15.6922037 0.000226028043,15.9851501 0.000226028043,16.3461019 C0.000226028043,16.7070536 0.29314521,17 0.654063489,17 L16.3461625,17 C16.7070808,17 17,16.7070536 17,16.3461019 C17,15.9851501 16.7070808,15.6922037 16.3461625,15.6922037 Z" id="Path"></path>
                        <path d="M1.96173841,6.53842816 C1.60082013,6.53842816 1.30790095,6.83137453 1.30790095,7.19232631 L1.30790095,13.7313078 C1.30790095,14.0922596 1.60082013,14.3852059 1.96173841,14.3852059 L4.57708825,14.3852059 C4.93800653,14.3852059 5.23092571,14.0922596 5.23092571,13.7313078 L5.23092571,7.19232631 C5.23092571,6.83137453 4.93800653,6.53842816 4.57708825,6.53842816 L1.96173841,6.53842816 Z" id="Path"></path>
                        <path d="M7.19163817,6.53842816 C6.83071989,6.53842816 6.53780071,6.83137453 6.53780071,7.19232631 L6.53780071,13.7313078 C6.53780071,14.0922596 6.83071989,14.3852059 7.19163817,14.3852059 L9.80698801,14.3852059 C10.1679063,14.3852059 10.4608255,14.0922596 10.4608255,13.7313078 L10.4608255,7.19232631 C10.4608255,6.83137453 10.1679063,6.53842816 9.80698801,6.53842816 L7.19163817,6.53842816 Z" id="Path"></path>
                        <path d="M12.4215379,6.53842816 C12.0606197,6.53842816 11.7677005,6.83137453 11.7677005,7.19232631 L11.7677005,13.7313078 C11.7677005,14.0922596 12.0606197,14.3852059 12.4215379,14.3852059 L15.0368878,14.3852059 C15.3978061,14.3852059 15.6907252,14.0922596 15.6907252,13.7313078 L15.6907252,7.19232631 C15.6907252,6.83137453 15.3978061,6.53842816 15.0368878,6.53842816 L12.4215379,6.53842816 Z" id="Path"></path>
                        <path d="M0.654063489,5.23143039 L16.3461625,5.23143039 C16.6495431,5.23143039 16.9127127,5.02283688 16.9823464,4.72760187 C17.0519801,4.43236685 16.9094435,4.12830422 16.6384279,3.9922934 L8.79237836,0.0689045173 C8.60832311,-0.0229681724 8.391576,-0.0229681724 8.20752075,0.0689045173 L0.361471225,3.9922934 C0.0901286789,4.12797727 -0.0520809688,4.43236685 0.0175527207,4.72760187 C0.087513329,5.02283688 0.350682907,5.23143039 0.654063489,5.23143039 Z" id="Path"></path>
                    </g>
                </g>
            </g>
        </g>
    </g>
</svg>