<svg id="Icons_Options" data-name="Icons / Options" xmlns="http://www.w3.org/2000/svg" xmlns:xlink="http://www.w3.org/1999/xlink" width="18" height="4" viewBox="0 0 18 4">
  <defs>
    <clipPath id="clip-path">
      <path id="Icon" d="M14,2a2,2,0,1,1,2,2A2,2,0,0,1,14,2ZM7,2A2,2,0,1,1,9,4,2,2,0,0,1,7,2ZM0,2A2,2,0,1,1,2,4,2,2,0,0,1,0,2Z" fill="#fff"/>
    </clipPath>
  </defs>
  <path id="Icon-2" data-name="Icon" d="M14,2a2,2,0,1,1,2,2A2,2,0,0,1,14,2ZM7,2A2,2,0,1,1,9,4,2,2,0,0,1,7,2ZM0,2A2,2,0,1,1,2,4,2,2,0,0,1,0,2Z" fill="#fff"/>
</svg>
