<?xml version="1.0" encoding="UTF-8"?>
<svg width="18px" height="18px" viewBox="0 0 18 18" version="1.1" xmlns="http://www.w3.org/2000/svg" xmlns:xlink="http://www.w3.org/1999/xlink">
    <title>Privacy</title>
    <g id="v2" stroke="none" stroke-width="1" fill="none" fill-rule="evenodd">
        <g id="Settings" transform="translate(-23.000000, -669.000000)" fill="#384264">
            <g id="Body" transform="translate(0.000000, 117.000000)">
                <g id="Privacy" transform="translate(0.000000, 275.000000)">
                    <g id="Item" transform="translate(0.000000, 273.000000)">
                        <g id="Privacy" transform="translate(23.000000, 4.000000)">
                            <path d="M11.9703002,0.34369875 C10.0166002,-0.11456625 7.98340025,-0.11456625 6.02975025,0.34369875 C3.20842025,1.00548975 1.00550025,3.20840975 0.34370025,6.02974975 C-0.11456675,7.98339975 -0.11456675,10.0165997 0.34370025,11.9702998 C1.00550025,14.7915998 3.20842025,16.9944997 6.02975025,17.6562998 C7.98340025,18.1145998 10.0166002,18.1145998 11.9703002,17.6562998 C14.7916003,16.9944997 16.9945002,14.7915998 17.6563003,11.9702998 C18.1146002,10.0165997 18.1146002,7.98339975 17.6563003,6.02974975 C16.9945002,3.20841975 14.7916003,1.00548975 11.9703002,0.34369875 Z M9.00000025,5.74519975 C7.99548025,5.74519975 7.18116025,6.55952975 7.18116025,7.56404975 C7.18116025,8.19432975 7.50127025,8.75006975 7.99044025,9.07727975 C8.20412025,9.22021975 8.29680025,9.48774975 8.21733025,9.73223975 L7.56036025,11.7534997 C7.47995025,12.0008997 7.66437025,12.2546998 7.92452025,12.2546998 L10.0755002,12.2546998 C10.3356002,12.2546998 10.5201002,12.0008997 10.4396002,11.7534997 L9.78267025,9.73223975 C9.70320025,9.48774975 9.79588025,9.22021975 10.0096002,9.07727975 C10.4987002,8.75006975 10.8188002,8.19432975 10.8188002,7.56404975 C10.8188002,6.55952975 10.0045002,5.74519975 9.00000025,5.74519975 Z M6.03242025,7.56404975 C6.03242025,5.92508975 7.36105025,4.59645975 9.00000025,4.59645975 C10.6390002,4.59645975 11.9676002,5.92508975 11.9676002,7.56404975 C11.9676002,8.43347975 11.5934002,9.21533975 10.9988002,9.75750975 L11.5321002,11.3983998 C11.8538002,12.3879998 11.1161002,13.4034998 10.0755002,13.4034998 L7.92452025,13.4034998 C6.88390025,13.4034998 6.14621025,12.3879998 6.46788025,11.3983998 L7.00122025,9.75750975 C6.40665025,9.21533975 6.03242025,8.43347975 6.03242025,7.56404975 Z" id="Shape"></path>
                        </g>
                    </g>
                </g>
            </g>
        </g>
    </g>
</svg>