<?xml version="1.0" encoding="UTF-8"?>
<svg width="27px" height="27px" viewBox="0 0 27 27" version="1.1" xmlns="http://www.w3.org/2000/svg" xmlns:xlink="http://www.w3.org/1999/xlink">
    <title>Search</title>
    <g id="v2" stroke="none" stroke-width="1" fill="none" fill-rule="evenodd" stroke-linejoin="bevel">
        <g id="iphone-xs" transform="translate(-143.000000, -75.000000)" fill="#384264" fill-rule="nonzero" stroke="#384264" stroke-width="1.11228959">
            <g id="Tab-bar-Copy-3" transform="translate(44.000000, 62.000000)">
                <path d="M119.564906,31.6844974 C123.128304,27.1268073 122.528748,20.5829058 118.196474,16.7486445 C113.864201,12.9143832 107.296042,13.1145277 103.205257,17.205456 C99.1144717,21.2963842 98.9144563,27.8646502 102.74874,32.1969185 C106.583024,36.5291869 113.126834,37.1286269 117.684384,33.5650852 L122.726033,38.6065752 C123.061497,38.9448407 123.552284,39.077801 124.012619,38.9551275 C124.472953,38.832454 124.832493,38.4728919 124.955144,38.0125444 C125.077794,37.5521969 124.944814,37.0614083 124.606538,36.7259541 L119.564906,31.6844974 Z M110.962162,33.2279559 C107.618957,33.2279559 104.60491,31.2141407 103.325476,28.1253918 C102.046043,25.0366429 102.753188,21.4813073 105.117169,19.1172453 C107.48115,16.7531834 111.036417,16.0459611 114.125141,17.3253577 C117.213865,18.6047543 119.227765,21.6188121 119.227765,24.9620697 C119.222687,29.5250278 115.525048,33.222793 110.962162,33.2279559 Z" id="Search"></path>
            </g>
        </g>
    </g>
</svg>