<svg id="Group_10" data-name="Group 10" xmlns="http://www.w3.org/2000/svg" width="16" height="14" viewBox="0 0 16 14">
  <g id="noun_Video_1093340">
    <g id="handshake">
      <path id="Shape" d="M3.245.852A.829.829,0,0,0,2.725.073a.924.924,0,0,0-.964.151L.277,1.544A.8.8,0,0,0,.24,2.718a.92.92,0,0,0,1.246.034L2.97,1.432a.8.8,0,0,0,.275-.58Z" transform="translate(1.737 6.224)" fill="#afb7c5"/>
      <path id="Shape-2" data-name="Shape" d="M6.289,0A4.518,4.518,0,0,0,3.155,1.126c-6.277,5.585-.205.183-2.969,2.642A.558.558,0,0,0,0,4.158c-.016.6,1.109,1.074,1.818.442L3.949,2.7a.894.894,0,0,1,1.211.033l4.211,4.2A4.1,4.1,0,0,0,6.289,0Z" transform="translate(5.456 0.016)" fill="#afb7c5"/>
      <path id="Shape-3" data-name="Shape" d="M3.245.852A.829.829,0,0,0,2.725.073a.924.924,0,0,0-.964.151L.277,1.544a.8.8,0,0,0-.253.8.853.853,0,0,0,.6.6.921.921,0,0,0,.857-.191L2.97,1.432a.8.8,0,0,0,.275-.58Z" transform="translate(4.94 9.422)" fill="#afb7c5"/>
      <path id="Shape-4" data-name="Shape" d="M14.617,7.532c-.029-.019.06.061-4.416-4.409a.3.3,0,0,0-.4-.011L7.666,5.006A1.815,1.815,0,0,1,5.2,4.939a1.048,1.048,0,0,1,.046-1.545l2.338-2.08A4.554,4.554,0,0,0,3.381.109,4.283,4.283,0,0,0,.182,2.95,3.959,3.959,0,0,0,1.211,6.977l.4.4c.025-.027,0,0,1.489-1.325A1.519,1.519,0,0,1,4.792,5.85,1.342,1.342,0,0,1,5.525,7.3,1.49,1.49,0,0,1,6.76,7.71a1.3,1.3,0,0,1,.367,1.185,1.492,1.492,0,0,1,1.235.414,1.3,1.3,0,0,1,.367,1.186,1.49,1.49,0,0,1,1.212.391,1.3,1.3,0,0,1,.4,1.147.917.917,0,0,0,1.132-.2.793.793,0,0,0-.05-1.084l-3.8-3.8a.258.258,0,0,1-.066-.262A.279.279,0,0,1,7.758,6.5a.3.3,0,0,1,.274.077l3.8,3.8a.917.917,0,0,0,.844.238.861.861,0,0,0,.641-.57.8.8,0,0,0-.2-.808l-3.8-3.8a.258.258,0,0,1,.014-.378.3.3,0,0,1,.4.009l3.8,3.8a.92.92,0,0,0,.955.205.836.836,0,0,0,.567-.753,1.024,1.024,0,0,0-.438-.789Z" fill="#afb7c5"/>
      <path id="Shape-5" data-name="Shape" d="M2.391,0a.906.906,0,0,0-.63.226L.276,1.547a.8.8,0,0,0-.253.8.853.853,0,0,0,.6.6.921.921,0,0,0,.858-.192L2.971,1.434a.8.8,0,0,0,.217-.9A.881.881,0,0,0,2.391,0Z" transform="translate(6.54 11.019)" fill="#afb7c5"/>
      <path id="Shape-6" data-name="Shape" d="M3.239.852A.829.829,0,0,0,2.718.073a.924.924,0,0,0-.964.151L.27,1.544A.8.8,0,0,0,.24,2.712a.92.92,0,0,0,1.239.04L2.964,1.432a.8.8,0,0,0,.275-.58Z" transform="translate(3.345 7.823)" fill="#afb7c5"/>
    </g>
  </g>
</svg>
