<svg width="17" height="19" viewBox="0 0 17 19" fill="none" xmlns="http://www.w3.org/2000/svg">
<path fill-rule="evenodd" clip-rule="evenodd" d="M16.0463 16.0753L16.0947 16.0821C16.613 16.1568 17 16.5978 17 17.1203C17 17.6632 16.5785 18.1111 16.0325 18.1653L13.9593 18.2739C12.5841 18.7218 10.6492 19 8.5 19C6.35081 19 4.41585 18.7218 3.04065 18.2739L0.96748 18.1653C0.421545 18.1111 0 17.6632 0 17.1203C0 16.6046 0.386992 16.1636 0.905285 16.0821L0.960569 16.0753C0.946748 15.8446 0.946748 15.5868 0.946748 15.295C0.946748 7.82388 4.71992 6.02566 7.0626 5.09601H9.75772C12.2732 6.02566 16.0533 8.28531 16.0533 15.295C16.0533 15.5868 16.0533 15.8378 16.0463 16.0753ZM9.38455 11.4L8.16138 10.7825C7.83659 10.6196 7.87114 10.3142 7.89878 10.226C7.9126 10.1378 7.98862 9.85281 8.34797 9.81889C8.72805 9.78496 9.0874 9.99531 9.23943 10.3414C9.37073 10.6332 9.71626 10.7689 10.0134 10.64C10.3106 10.5178 10.4488 10.1717 10.3175 9.87996C10.0963 9.39138 9.70244 9.02495 9.22561 8.82817V8.45495C9.22561 8.13602 8.96301 7.87816 8.63821 7.87816C8.31341 7.87816 8.05081 8.13602 8.05081 8.45495V8.69924C7.37358 8.83495 6.8622 9.33031 6.73089 10.0157C6.58577 10.7485 6.94512 11.4746 7.62236 11.8139L8.84553 12.4314C9.09431 12.5535 9.14959 12.7978 9.12195 12.981C9.10813 13.0828 9.03211 13.3339 8.72114 13.3814L8.66585 13.3882C8.28577 13.4221 7.92642 13.2118 7.77439 12.8657C7.65 12.5739 7.29756 12.4382 7.00041 12.5671C6.70325 12.6893 6.56504 13.0353 6.69634 13.3271C6.95203 13.9039 7.4565 14.3178 8.05081 14.4739V14.7046C8.05081 15.0236 8.31341 15.2814 8.63821 15.2814C8.96301 15.2814 9.22561 15.0236 9.22561 14.7046V14.44C9.78537 14.2432 10.1931 13.7682 10.2898 13.1643C10.4073 12.4314 10.0549 11.7393 9.38455 11.4Z" fill="white"/>
<path d="M10.5041 0.101707C10.0963 -0.156151 9.39147 0.0949212 8.80407 0.644566C8.52073 0.915996 8.07846 0.915996 7.79512 0.644566C7.20773 0.0949212 6.50976 -0.149366 6.09512 0.101707C4.71992 0.915996 6.57195 3.76601 6.74472 3.92887H9.86138C10.0272 3.76601 11.8033 0.915996 10.5041 0.101707Z" fill="white"/>
</svg>
