<?xml version="1.0" encoding="UTF-8"?>
<svg width="38px" height="36px" viewBox="0 0 38 36" version="1.1" xmlns="http://www.w3.org/2000/svg" xmlns:xlink="http://www.w3.org/1999/xlink">
    <title>Sort</title>
    <g id="Page-2" stroke="none" stroke-width="1" fill="none" fill-rule="evenodd">
        <g id="Celebrity--profile---donate-button-with-total-no-of-donations---Maria" transform="translate(-321.000000, -611.000000)">
            <g id="Popular-videos" transform="translate(16.000000, 611.000000)">
                <g id="Sort" transform="translate(305.000000, 0.000000)">
                    <rect id="Rectangle" fill-opacity="0.4" fill="#B6B6B6" x="0" y="0" width="37.5652174" height="36" rx="12"></rect>
                    <g id="noun_sort-by_3324564" transform="translate(9.000000, 10.000000)" fill="#FFFFFF" fill-rule="nonzero">
                        <path d="M10.0006425,5.42183319 C9.82966688,5.59220357 9.59542038,5.69017271 9.34944247,5.6941852 C9.10346456,5.69819769 8.8659079,5.6079248 8.68904022,5.44322858 L6.06365592,2.9991067 L6.06365592,13.8735038 C6.06365592,14.3668795 5.64839224,14.7668395 5.13613854,14.7668395 C4.62388484,14.7668395 4.20862117,14.3668795 4.20862117,13.8735038 L4.20862117,2.9991067 L1.58323686,5.44322858 C1.34621127,5.67140927 0.999820924,5.75869707 0.677140209,5.67155822 C0.354459493,5.58441937 0.105677489,5.33640727 0.0263699321,5.02280187 C-0.0529376251,4.70919648 0.0495645957,4.37877531 0.294497841,4.1584778 L4.49151397,0.251116673 C4.50700351,0.236644634 4.52490459,0.226505273 4.54118252,0.213239238 L4.55662568,0.200955872 C4.57679919,0.185322496 4.59544229,0.167098448 4.61658968,0.153296411 C4.62006787,0.151063071 4.6240562,0.149589067 4.62758076,0.147355728 C4.65271648,0.131409685 4.67942899,0.119572987 4.7057241,0.106217618 C4.73276123,0.0925495812 4.75905635,0.077541541 4.78706738,0.0665981784 C4.81585679,0.0562404105 4.84517307,0.0472955647 4.87490327,0.0397981066 C4.89915785,0.0329640883 4.92271679,0.0235393964 4.94738876,0.0186260499 L4.95949286,0.0171073792 C4.98903429,0.0116133644 5.01880759,0.0102733608 5.04872003,0.00754868688 C5.07589629,0.00513668042 5.10270154,0.000714668581 5.13001693,0.000536001436 L5.13613854,0 L5.14188915,0.000536001436 C5.16901903,0.000759335367 5.19573153,0.00500268007 5.22276866,0.00759335367 C5.25263472,0.0102733608 5.28240803,0.0116133644 5.31194946,0.0170627124 L5.32498108,0.0187153835 C5.34909653,0.0235393964 5.37209896,0.0328747547 5.39579703,0.0395747727 C5.42586798,0.0470526631 5.45552494,0.0559975555 5.48465319,0.0663748444 C5.48882702,0.0680275155 5.49351099,0.0686528505 5.49763844,0.0703501884 C5.52082637,0.0797748803 5.54192739,0.0938895848 5.56432694,0.105190282 C5.5916082,0.117774918 5.61820108,0.131699484 5.64400068,0.14690906 C5.64789625,0.149365733 5.65220921,0.151107738 5.65605841,0.153609078 C5.67460875,0.16553511 5.69037655,0.181481153 5.707953,0.194836522 C5.71620791,0.201089872 5.72423093,0.207566556 5.73225396,0.214132574 C5.74806813,0.226996608 5.76550546,0.236867968 5.78057761,0.250938005 L9.97777924,4.1584778 C10.1547847,4.32307194 10.2566386,4.54865851 10.2609265,4.78559394 C10.2652144,5.02252937 10.1715849,5.25139771 10.0006425,5.42183319 Z M19.739575,11.5783457 C19.5685931,11.4079813 19.3343432,11.3100203 19.0883653,11.3060162 C18.8423874,11.3020121 18.6048343,11.3922929 18.4279727,11.556995 L15.8025884,14.0010722 L15.8025884,3.12667504 C15.8025884,2.63329934 15.3873247,2.23333931 14.875071,2.23333931 C14.3628173,2.23333931 13.9475536,2.63329934 13.9475536,3.12667504 L13.9475536,14.0010722 L11.3221693,11.556995 C11.0852308,11.3284208 10.7386411,11.2408322 10.4157089,11.3279182 C10.0927766,11.4150042 9.84380118,11.6632005 9.76454578,11.9770436 C9.68529037,12.2908866 9.7880997,12.6214927 10.0334303,12.8417011 L14.2304464,16.7490622 C14.2469098,16.7644276 14.2658776,16.7754156 14.2831758,16.7892623 C14.2960219,16.799625 14.308497,16.810345 14.321946,16.8200824 C14.3366471,16.8306237 14.3503744,16.8426838 14.3655857,16.8522871 C14.3926033,16.8681966 14.4204669,16.8827332 14.4490623,16.8958373 C14.4715545,16.9071826 14.4925164,16.9208953 14.5161218,16.930454 L14.5259998,16.9338934 C14.5586743,16.9455003 14.5920111,16.9552983 14.6258471,16.9632394 C14.6478292,16.9691801 14.6686056,16.9777561 14.691237,16.9821335 L14.6977297,16.9832948 C14.8147327,17.0055684 14.935131,17.0055684 15.052134,16.9832948 L15.0586267,16.9821335 C15.0812581,16.9776668 15.1020345,16.9691801 15.1240166,16.9632394 C15.1578526,16.9552983 15.1911894,16.9455003 15.2238639,16.9338934 L15.233742,16.930454 C15.2573473,16.9208953 15.2783092,16.9071826 15.3008015,16.8958373 C15.3293968,16.8827332 15.3572604,16.8681966 15.384278,16.8522871 C15.3994893,16.8426838 15.4132166,16.8306237 15.4279177,16.8200824 C15.4413667,16.810345 15.4538418,16.799625 15.4666879,16.7892623 C15.4839861,16.7753263 15.5029539,16.7643382 15.5194173,16.7490622 L19.7167117,12.8417011 C19.8937172,12.6771069 19.9955711,12.4515204 19.999859,12.2145849 C20.0041468,11.9776495 19.9105173,11.7487812 19.739575,11.5783457 Z" id="Shape"></path>
                    </g>
                </g>
            </g>
        </g>
    </g>
</svg>