<?xml version="1.0" encoding="UTF-8"?>
<svg width="51px" height="51px" viewBox="0 0 51 51" version="1.1" xmlns="http://www.w3.org/2000/svg" xmlns:xlink="http://www.w3.org/1999/xlink">
    <title>React@2x</title>
    <g id="Page-1" stroke="none" stroke-width="1" fill="none" fill-rule="evenodd">
        <g id="Home-screen---video-3" transform="translate(-308.000000, -495.000000)">
            <g id="Top-part" transform="translate(0.000000, -3.000000)">
                <g id="Options" transform="translate(308.000000, 296.000000)">
                    <g id="React" transform="translate(0.000000, 202.000000)">
                        <circle id="Oval" fill="#3772E7" cx="25.5" cy="25.5" r="25.5"></circle>
                        <path d="M30.96321,12 C31.8971208,12 32.654205,12.77509 32.654205,13.731212 C32.6532044,13.9592237 32.6071895,14.184675 32.5189254,14.3940189 L29.7650192,21.1605846 L34.2775603,21.1605846 C34.9438462,21.1479076 35.5552733,21.5370403 35.8390249,22.1543528 C36.1227764,22.7716653 36.0259327,23.5020289 35.591705,24.0195576 L23.4745175,39.3531495 C22.9863309,39.9750664 22.1462052,40.1748684 21.4402297,39.836952 C20.7342542,39.4990356 20.3452809,38.7109231 20.4983662,37.9286094 L22.1120587,29.7276108 L16.6912116,29.7276108 C16.2393633,29.7276411 15.8062972,29.5425326 15.4886127,29.2135755 C15.1709282,28.8846185 14.9950526,28.439178 15.000106,27.9766136 C14.9978515,27.7524535 15.0406122,27.5301973 15.1258333,27.3236993 L20.8462281,13.0684051 C21.1105826,12.4223122 21.7273925,12.0013258 22.4116064,12 L30.96321,12 Z" id="Shape" fill="#FFFFFF" fill-rule="nonzero"></path>
                    </g>
                </g>
            </g>
        </g>
    </g>
</svg>