<svg xmlns="http://www.w3.org/2000/svg" width="16" height="16" viewBox="0 0 16 16">
  <g id="Arrow" transform="translate(0.5 0.5)">
    <path id="Path" d="M14.594,3.7A4.582,4.582,0,0,0,12.027.577,15.159,15.159,0,0,0,7.5,0,15.159,15.159,0,0,0,2.973.577,4.582,4.582,0,0,0,.406,3.7,15.779,15.779,0,0,0,0,7.5a14.962,14.962,0,0,0,.4,3.8,4.582,4.582,0,0,0,2.567,3.119A15.159,15.159,0,0,0,7.5,15a14.666,14.666,0,0,0,4.527-.577A4.582,4.582,0,0,0,14.594,11.3,15.779,15.779,0,0,0,15,7.5,15.779,15.779,0,0,0,14.594,3.7Z" fill="#fff" stroke="#dbdcdc" stroke-miterlimit="10" stroke-width="1"/>
    <path id="Path-2" data-name="Path" d="M4.773,4.127,1.092,7.809a.64.64,0,0,1-.9-.9L3.094,4,.187,1.092a.64.64,0,0,1,.9-.9L4.773,3.87A.18.18,0,0,1,4.773,4.127Z" transform="translate(5.769 3.501)" fill="#2b343f"/>
  </g>
</svg>
