<svg height='100px' width='100px'  fill="#000000" xmlns="http://www.w3.org/2000/svg" xmlns:xlink="http://www.w3.org/1999/xlink" version="1.1" x="0px" y="0px" viewBox="0 0 512 512" style="enable-background:new 0 0 512 512;" xml:space="preserve"><g><path d="M6,363.129c0,28.385,23.093,51.478,51.478,51.478h397.045c28.385,0,51.478-23.093,51.478-51.478V148.871   c0-28.385-23.093-51.478-51.478-51.478H57.478C29.093,97.394,6,120.486,6,148.871V363.129z M42,148.871   c0-8.534,6.943-15.478,15.478-15.478h397.045c8.534,0,15.478,6.943,15.478,15.478v214.258c0,8.534-6.943,15.478-15.478,15.478   H57.478c-8.534,0-15.478-6.943-15.478-15.478V148.871z"></path><path d="M252.485,354.121c53.243,0,96.56-43.316,96.56-96.56c0-53.244-43.317-96.561-96.56-96.561s-96.56,43.316-96.56,96.561   C155.925,310.805,199.242,354.121,252.485,354.121z M252.485,197.001c33.393,0,60.56,27.167,60.56,60.561   c0,33.393-27.167,60.56-60.56,60.56s-60.56-27.167-60.56-60.56C191.925,224.168,219.092,197.001,252.485,197.001z"></path><path d="M422.439,368.183c17.678,0,32.061-14.382,32.061-32.061s-14.382-32.061-32.061-32.061s-32.061,14.382-32.061,32.061   S404.761,368.183,422.439,368.183z M422.439,332.183c2.172,0,3.939,1.768,3.939,3.939s-1.767,3.939-3.939,3.939   s-3.939-1.768-3.939-3.939S420.267,332.183,422.439,332.183z"></path><path d="M82.53,211.062c17.678,0,32.061-14.382,32.061-32.061s-14.382-32.062-32.061-32.062c-17.679,0-32.061,14.383-32.061,32.062   S64.852,211.062,82.53,211.062z M82.53,175.062c2.172,0,3.939,1.768,3.939,3.939s-1.767,3.938-3.939,3.938   c-2.172,0-3.939-1.767-3.939-3.938S80.358,175.062,82.53,175.062z"></path></g></svg>