<?xml version="1.0" encoding="UTF-8"?>
<svg width="27px" height="27px" viewBox="0 0 27 27" version="1.1" xmlns="http://www.w3.org/2000/svg" xmlns:xlink="http://www.w3.org/1999/xlink">
    <title>Search Unselected</title>
    <g id="v2" stroke="none" stroke-width="1" fill="none" fill-rule="evenodd" stroke-linejoin="bevel">
        <g id="iphone-xs" transform="translate(-143.000000, -167.000000)" fill="#AFB7C5" fill-rule="nonzero" stroke="#AFB7C5" stroke-width="1.11228959">
            <g id="Tab-bar-Copy-4" transform="translate(44.000000, 154.000000)">
                <g id="Search-Unselected" transform="translate(100.000000, 14.000000)">
                    <path d="M19.5649059,17.6844974 C23.128304,13.1268073 22.528748,6.58290581 18.1964745,2.74864452 C13.8642009,-1.08561678 7.29604234,-0.885472254 3.20525704,3.20545597 C-0.885528251,7.2963842 -1.0855437,13.8646502 2.74874019,18.1969185 C6.58302407,22.5291869 13.1268338,23.1286269 17.6843838,19.5650852 L22.7260328,24.6065752 C23.0614972,24.9448407 23.5522841,25.077801 24.0126188,24.9551275 C24.4729534,24.832454 24.8324933,24.4728919 24.9551439,24.0125444 C25.0777944,23.5521969 24.9448137,23.0614083 24.6065382,22.7259541 L19.5649059,17.6844974 Z M10.962162,19.2279559 C7.61895707,19.2279559 4.60490964,17.2141407 3.32547622,14.1253918 C2.04604279,11.0366429 2.7531883,7.48130728 5.11716935,5.11724534 C7.48115039,2.7531834 11.0364169,2.04596113 14.1251407,3.32535773 C17.2138645,4.60475434 19.2277652,7.61881213 19.2277652,10.9620697 C19.2226867,15.5250278 15.5250479,19.222793 10.962162,19.2279559 Z" id="Search-Copy"></path>
                </g>
            </g>
        </g>
    </g>
</svg>