<?xml version="1.0" encoding="UTF-8"?>
<svg width="17px" height="19px" viewBox="0 0 17 19" version="1.1" xmlns="http://www.w3.org/2000/svg" xmlns:xlink="http://www.w3.org/1999/xlink">
    <title>⭐️ Icons</title>
    <g id="v2" stroke="none" stroke-width="1" fill="none" fill-rule="evenodd">
        <g id="Settings" transform="translate(-23.000000, -120.000000)" fill="#384264">
            <g id="Body" transform="translate(0.000000, 117.000000)">
                <g id="Notification@2x-1" transform="translate(23.000000, 3.000000)">
                    <path d="M5.06312063,16.1323722 C5.048745,16.0661889 5.03711063,15.9996889 5.02816438,15.9331889 C4.28469063,15.8413556 3.54392625,15.7198611 2.80760313,15.5688111 L2.44267688,15.4938667 C1.02120063,15.2023222 0,13.9430445 0,12.4818389 C0,11.4306111 0.5237275,10.5038334 1.32100625,9.94987781 C1.09337625,8.48350004 1.17473188,6.98454783 1.56045125,5.55085005 L1.61362938,5.35318672 C2.24998188,2.98789784 4.0524175,1.10292896 6.36103875,0.349251741 C7.78929375,-0.117029369 9.343625,-0.118359369 10.7726875,0.356946741 C13.0475,1.11357952 14.78745,2.97884117 15.3954125,5.31287505 L15.4666,5.58585228 C15.837625,7.01037727 15.9099813,8.49669449 15.6794188,9.95019448 C16.4764,10.50415 17,11.4308223 17,12.4818389 C17,13.9430445 15.9788313,15.2023222 14.5573125,15.4938667 L14.19245,15.5688111 C13.4560313,15.7198611 12.7152563,15.8413556 11.971825,15.9331889 C11.9629,15.9996889 11.9512125,16.0661889 11.9368688,16.1323722 L11.866425,16.4565333 C11.6089813,17.6420278 10.7004375,18.5741889 9.52839375,18.8552833 L9.3381,18.9008833 C8.7870875,19.0330389 8.2129125,19.0330389 7.6619,18.9008833 L7.4715,18.8552833 C6.29961563,18.5741889 5.39097625,17.6420278 5.1335325,16.4565333 L5.06312063,16.1323722 Z M6.54319375,16.0790667 C7.8461375,16.1694222 9.1538625,16.1694222 10.4568063,16.0790667 L10.4429938,16.1429278 C10.3050813,16.7777389 9.8185625,17.2769111 9.19094375,17.4274333 L9.00065,17.4730333 C8.6714875,17.5519889 8.3285125,17.5519889 7.99935,17.4730333 L7.80905625,17.4274333 C7.1814375,17.2769111 6.69491875,16.7777389 6.55700625,16.1429278 L6.54319375,16.0790667 Z" id="Shape"></path>
                </g>
            </g>
        </g>
    </g>
</svg>