<?xml version="1.0" encoding="UTF-8"?>
<svg width="23px" height="18px" viewBox="0 0 23 18" version="1.1" xmlns="http://www.w3.org/2000/svg" xmlns:xlink="http://www.w3.org/1999/xlink">
    <title>My drafts - unactive</title>
    <g id="v2" stroke="none" stroke-width="1" fill="none" fill-rule="evenodd">
        <g id="User-profile-" transform="translate(-238.000000, -670.000000)" fill-rule="nonzero">
            <g id="My-drafts---unactive" transform="translate(238.000000, 670.000000)">
                <g id="noun_Video_1093340" fill="#AFB7C5">
                    <path d="M11.8064516,0 C14.5976414,-5.12733238e-16 16.9436811,1.90591381 17.614146,4.48731669 L20.4777405,2.60131229 C20.9821924,2.28854655 21.5987447,2.2601133 22.1312217,2.54444579 C22.6636987,2.82877829 23,3.39744329 23,4.02297478 L23,14.0030454 C22.9719749,14.6001437 22.6636987,15.1688087 22.1312217,15.4531412 C21.8789958,15.5953074 21.6267698,15.6521739 21.3745439,15.6521739 C21.0662677,15.6521739 20.7579915,15.5668742 20.5057656,15.3962747 L17.6154361,13.5077074 C16.9466952,16.0916366 14.5994345,18 11.8064516,18 L6,18 C2.6862915,18 4.05812251e-16,15.3137085 0,12 L0,6 C-4.05812251e-16,2.6862915 2.6862915,6.08718376e-16 6,0 L11.8064516,0 Z" id="Combined-Shape"></path>
                </g>
                <g id="Hidden-Wallet" transform="translate(5.000000, 6.000000)" fill="#1F2327">
                    <path d="M6.65230769,1.66201854 L7.20615385,1.08980574 C7.44745978,0.840497592 7.44745977,0.436289242 7.20615383,0.186981107 C6.96484788,-0.0623270287 6.57361365,-0.0623270366 6.33230769,0.186981089 L5.53846154,0.994436937 C5.05394908,0.770337311 4.53074504,0.649253095 4,0.638393413 C1.90153846,0.638393413 0,2.69835951 0,3.49945744 C0,3.92543808 0.535384615,4.70110433 1.34769231,5.33689634 L0.793846154,5.90910914 C0.677346061,6.02848964 0.611816416,6.19099545 0.611816416,6.36052147 C0.611816416,6.53004748 0.677346061,6.69255329 0.793846154,6.81193379 C0.909394831,6.93229726 1.06668459,7 1.23076923,7 C1.39485387,7 1.55214363,6.93229726 1.66769231,6.81193379 L2.46153846,6.00447794 C2.94605092,6.22857757 3.46925496,6.34966178 4,6.36052147 C6.09846154,6.36052147 8,4.30055537 8,3.49945744 C8,3.0734768 7.46461538,2.29781055 6.65230769,1.66201854 Z M1.29846154,3.49945744 C1.93542388,2.59243075 2.91996408,2.01316565 4,1.90996818 C4.20775758,1.90938606 4.41467888,1.93717788 4.61538462,1.99263039 L4.07384615,2.55212735 L4,2.55212735 C3.49259228,2.5521157 3.08030579,2.97523471 3.07692308,3.49945744 C3.07692308,3.49945744 3.07692308,3.53124704 3.07692308,3.5503208 L2.24,4.45314545 C1.87921139,4.18881867 1.56139754,3.86690377 1.29846154,3.49945744 L1.29846154,3.49945744 Z M4,5.08893745 C3.80228555,5.08472392 3.60587037,5.05481864 3.41538462,4.99992657 L3.95076923,4.44678753 L4,4.44678753 C4.50740772,4.44679918 4.91969421,4.02368017 4.92307692,3.49945744 C4.92307692,3.49945744 4.92307692,3.46766784 4.92307692,3.44859408 L5.77230769,2.54576943 C6.12379785,2.80722262 6.43678936,3.11988591 6.70153846,3.47402576 C6.06240089,4.38260133 5.08094935,4.96928835 4,5.08893745 Z" id="Shape"></path>
                </g>
            </g>
        </g>
    </g>
</svg>