<?xml version="1.0" encoding="UTF-8"?>
<svg width="39px" height="39px" viewBox="0 0 39 39" version="1.1" xmlns="http://www.w3.org/2000/svg" xmlns:xlink="http://www.w3.org/1999/xlink">
    <title>Card icon</title>
    <g id="v2" stroke="none" stroke-width="1" fill="none" fill-rule="evenodd">
        <g id="Artboard" transform="translate(-80.000000, -175.000000)">
            <g id="Card-icon" transform="translate(80.000000, 175.000000)">
                <circle id="Oval" fill="#EEF2F5" cx="19.5" cy="19.5" r="19.5"></circle>
                <path d="M26.15,13 L12.85,13 C11.2759885,13 10,14.2472068 10,15.7857143 L10,23.2142857 C10,24.7527932 11.2759885,26 12.85,26 L26.15,26 C27.7240115,26 29,24.7527932 29,23.2142857 L29,15.7857143 C29,14.2472068 27.7240115,13 26.15,13 Z M18.55,22.2857143 L14.75,22.2857143 C14.2253295,22.2857143 13.8,21.8699787 13.8,21.3571429 C13.8,20.844307 14.2253295,20.4285714 14.75,20.4285714 L18.55,20.4285714 C19.0746705,20.4285714 19.5,20.844307 19.5,21.3571429 C19.5,21.8699787 19.0746705,22.2857143 18.55,22.2857143 Z M24.25,22.2857143 L22.35,22.2857143 C21.8253295,22.2857143 21.4,21.8699787 21.4,21.3571429 C21.4,20.844307 21.8253295,20.4285714 22.35,20.4285714 L24.25,20.4285714 C24.7746705,20.4285714 25.2,20.844307 25.2,21.3571429 C25.2,21.8699787 24.7746705,22.2857143 24.25,22.2857143 Z M27.1,16.7142857 L11.9,16.7142857 L11.9,15.7857143 C11.9,15.2728784 12.3253295,14.8571429 12.85,14.8571429 L26.15,14.8571429 C26.6746705,14.8571429 27.1,15.2728784 27.1,15.7857143 L27.1,16.7142857 Z" id="Shape" fill="#B8BDC2" fill-rule="nonzero"></path>
            </g>
        </g>
    </g>
</svg>