<?xml version="1.0" encoding="UTF-8"?>
<svg width="51px" height="51px" viewBox="0 0 51 51" version="1.1" xmlns="http://www.w3.org/2000/svg" xmlns:xlink="http://www.w3.org/1999/xlink">
    <title>Like@2x</title>
    <g id="Page-1" stroke="none" stroke-width="1" fill="none" fill-rule="evenodd">
        <g id="Video-details" transform="translate(-308.000000, -356.000000)">
            <g id="Top-part" transform="translate(0.000000, -3.000000)">
                <g id="Options" transform="translate(308.000000, 296.000000)">
                    <g id="Like" transform="translate(0.000000, 63.000000)">
                        <circle id="Oval" fill-opacity="0.4" fill="#B6B6B6" cx="25.5" cy="25.5" r="25.5"></circle>
                        <g id="noun_like_1834706" transform="translate(13.000000, 16.000000)" fill="#FFFFFF" fill-rule="nonzero">
                            <path d="M16.6055168,0 C18.6007892,0 20.4683113,0.760457143 21.864021,2.14122198 C21.8666335,2.14380659 21.8692461,2.14639121 21.8718054,2.14897582 C23.2441617,3.53823297 24,5.3780044 24,7.32928352 C24,9.28098462 23.2339779,11.130778 21.8431202,12.538022 C21.8406143,12.5406066 21.838055,12.5431385 21.8355491,12.5456176 L21.8355491,12.5456176 L14.943323,19.3640967 C14.1563469,20.1426462 13.1100312,20.5714286 11.9971211,20.5714286 C10.8841577,20.5714286 9.83784205,20.1426462 9.05086592,19.3641495 L9.05086592,19.3641495 L2.21318437,12.5996835 C0.823499692,11.2248264 0.0379631533,9.39776703 0.00133357332,7.45492747 C-0.0355092793,5.49932308 0.692123731,3.65111209 2.05024405,2.25072527 C3.45784363,0.799331868 5.36892665,0 7.43143326,0 C9.10519713,0 10.7049021,0.545512088 12.0201013,1.55108571 C13.3175988,0.545459341 14.9158108,0 16.6055168,0 Z" id="Shape"></path>
                        </g>
                        <g id="Like-active" transform="translate(13.000000, 16.000000)" fill="#FF5F64" fill-rule="nonzero">
                            <path d="M16.6055168,0 C18.6007892,0 20.4683113,0.760457143 21.864021,2.14122198 C21.8666335,2.14380659 21.8692461,2.14639121 21.8718054,2.14897582 C23.2441617,3.53823297 24,5.3780044 24,7.32928352 C24,9.28098462 23.2339779,11.130778 21.8431202,12.538022 C21.8406143,12.5406066 21.838055,12.5431385 21.8355491,12.5456176 L21.8355491,12.5456176 L14.943323,19.3640967 C14.1563469,20.1426462 13.1100312,20.5714286 11.9971211,20.5714286 C10.8841577,20.5714286 9.83784205,20.1426462 9.05086592,19.3641495 L9.05086592,19.3641495 L2.21318437,12.5996835 C0.823499692,11.2248264 0.0379631533,9.39776703 0.00133357332,7.45492747 C-0.0355092793,5.49932308 0.692123731,3.65111209 2.05024405,2.25072527 C3.45784363,0.799331868 5.36892665,0 7.43143326,0 C9.10519713,0 10.7049021,0.545512088 12.0201013,1.55108571 C13.3175988,0.545459341 14.9158108,0 16.6055168,0 Z" id="Shape"></path>
                        </g>
                    </g>
                </g>
            </g>
        </g>
    </g>
</svg>