<?xml version="1.0" encoding="UTF-8"?>
<svg width="20px" height="14px" viewBox="0 0 20 14" version="1.1" xmlns="http://www.w3.org/2000/svg" xmlns:xlink="http://www.w3.org/1999/xlink">
    <title>⭐️ Icons</title>
    <g id="v2" stroke="none" stroke-width="1" fill="none" fill-rule="evenodd">
        <g id="Settings" transform="translate(-22.000000, -215.000000)" fill="#384264" fill-rule="nonzero">
            <g id="Body" transform="translate(0.000000, 117.000000)">
                <g id="Item" transform="translate(0.000000, 91.000000)">
                    <g id="Credit-Card" transform="translate(22.000000, 7.000000)">
                        <path d="M17,0 L3,0 C1.34314575,0 0,1.34314575 0,3 L0,11 C0,12.6568542 1.34314575,14 3,14 L17,14 C18.6568542,14 20,12.6568542 20,11 L20,3 C20,1.34314575 18.6568542,0 17,0 Z M9,10 L5,10 C4.44771525,10 4,9.55228475 4,9 C4,8.44771525 4.44771525,8 5,8 L9,8 C9.55228475,8 10,8.44771525 10,9 C10,9.55228475 9.55228475,10 9,10 Z M15,10 L13,10 C12.4477153,10 12,9.55228475 12,9 C12,8.44771525 12.4477153,8 13,8 L15,8 C15.5522847,8 16,8.44771525 16,9 C16,9.55228475 15.5522847,10 15,10 Z M18,4 L2,4 L2,3 C2,2.44771525 2.44771525,2 3,2 L17,2 C17.5522847,2 18,2.44771525 18,3 L18,4 Z" id="Shape"></path>
                    </g>
                </g>
            </g>
        </g>
    </g>
</svg>