<?xml version="1.0" encoding="UTF-8"?>
<svg width="18px" height="18px" viewBox="0 0 18 18" version="1.1" xmlns="http://www.w3.org/2000/svg" xmlns:xlink="http://www.w3.org/1999/xlink">
    <title>Edit icon@2x</title>
    <g id="v2" stroke="none" stroke-width="1" fill="none" fill-rule="evenodd">
        <g id="Edit-profile" transform="translate(-211.000000, -169.000000)">
            <g id="Edit-icon" transform="translate(211.000000, 169.000000)">
                <ellipse id="Oval" fill="#FFFFFF" cx="9.5" cy="9" rx="6.5" ry="7"></ellipse>
                <path d="M11.9703025,0.3437025 C10.0166025,-0.1145675 7.9834025,-0.1145675 6.0297525,0.3437025 C3.2084225,1.0054925 1.0055025,3.2084125 0.3437025,6.0297525 C-0.1145675,7.9834025 -0.1145675,10.0166025 0.3437025,11.9703025 C1.0055025,14.7916025 3.2084225,16.9945025 6.0297525,17.6563025 C7.9834025,18.1146025 10.0166025,18.1146025 11.9703025,17.6563025 C14.7916025,16.9945025 16.9945025,14.7916025 17.6563025,11.9703025 C18.1146025,10.0166025 18.1146025,7.9834025 17.6563025,6.0297525 C16.9945025,3.2084225 14.7916025,1.0054925 11.9703025,0.3437025 Z M9.6219025,5.2453125 C10.0373025,4.8298825 10.6008025,4.5964925 11.1883025,4.5964925 C12.4117025,4.5964925 13.4035025,5.5882825 13.4035025,6.8117125 C13.4035025,7.3992025 13.1701025,7.9627025 12.7547025,8.3781025 L10.2550025,10.8778025 C9.0947025,12.0381025 7.6408025,12.8613025 6.0488925,13.2593025 L5.5657525,13.3800025 C4.9945525,13.5228025 4.4771625,13.0055025 4.6199625,12.4343025 L4.7407425,11.9511025 C5.1387325,10.3592025 5.9618925,8.9053025 7.1222025,7.7450025 L9.6219025,5.2453125 Z M11.1883025,5.7452325 C10.9054025,5.7452325 10.6342025,5.8575925 10.4342025,6.0576025 L10.0717025,6.4201225 C10.0359025,6.7051925 10.1783025,7.1031025 10.5376025,7.4624025 C10.8969025,7.8217025 11.2948025,7.9641025 11.5799025,7.9284025 L11.9424025,7.5658025 C12.1424025,7.3658025 12.2548025,7.0946025 12.2548025,6.8117125 C12.2548025,6.2227125 11.7773025,5.7452325 11.1883025,5.7452325 Z M10.6171025,8.8911025 C10.2757025,8.7409025 9.9685025,8.5179025 9.7253025,8.2747025 C9.4821025,8.0315025 9.2591025,7.7244025 9.1089025,7.3829025 L7.9345025,8.5573025 C6.9492725,9.5425025 6.2424525,10.7701025 5.8847125,12.1153025 C7.2299025,11.7576025 8.4575025,11.0507025 9.4427025,10.0655025 L10.6171025,8.8911025 Z" id="Shape" fill="#384264"></path>
            </g>
        </g>
    </g>
</svg>