<?xml version="1.0" encoding="UTF-8"?>
<svg width="24px" height="24px" viewBox="0 0 24 24" version="1.1" xmlns="http://www.w3.org/2000/svg" xmlns:xlink="http://www.w3.org/1999/xlink">
    <title>Photo-gallery@2x</title>
    <g id="Page-1" stroke="none" stroke-width="1" fill="none" fill-rule="evenodd">
        <g id="Request-reply" transform="translate(-96.000000, -709.000000)" fill="#FFFFFF" fill-rule="nonzero">
            <g id="noun_gallery_3565574" transform="translate(96.000000, 709.000000)">
                <path d="M14.24,6.96 C14.24,5.41333333 15.4933333,4.18666667 17.0133333,4.18666667 C18.56,4.18666667 19.7866667,5.44 19.7866667,6.96 C19.7866667,8.50666667 18.5333333,9.73333333 17.0133333,9.73333333 C15.4933333,9.76 14.24,8.50666667 14.24,6.96 Z M24,13.6 L24,19.3066667 C24,21.8933333 21.8933333,24 19.3066667,24 L4.69333333,24 C2.10666667,24 0,21.8933333 0,19.3066667 L0,4.69333333 C0,2.10666667 2.10666667,0 4.69333333,0 L19.3066667,0 C21.8933333,0 24,2.10666667 24,4.69333333 L24,13.6 C24,13.6 24,13.6 24,13.6 Z M21.84,20.5066667 C22.0266667,20.1333333 22.1066667,19.7333333 22.1066667,19.3066667 L22.1066667,14.32 C20.2933333,14.0266667 18.4,14.5066667 16.9333333,15.6266667 L21.84,20.5066667 Z M1.86666667,4.69333333 L1.86666667,10.08 C5.25333333,8 9.73333333,8.42666667 12.64,11.3333333 L15.6,14.2933333 C17.44,12.8266667 19.7866667,12.1333333 22.1066667,12.4266667 L22.1066667,4.69333333 C22.1333333,3.14666667 20.8533333,1.86666667 19.3066667,1.86666667 L4.69333333,1.86666667 C3.14666667,1.86666667 1.86666667,3.14666667 1.86666667,4.69333333 Z M19.3066667,22.1333333 C19.7333333,22.1333333 20.16,22.0266667 20.5066667,21.8666667 L11.3333333,12.6666667 C8.74666667,10.08 4.58666667,9.97333333 1.86666667,12.4 L1.86666667,19.3066667 C1.86666667,20.8533333 3.14666667,22.1333333 4.69333333,22.1333333 L19.3066667,22.1333333 Z" id="Shape"></path>
            </g>
        </g>
    </g>
</svg>