<svg xmlns="http://www.w3.org/2000/svg" width="15.6" height="12.6" viewBox="0 0 15.6 12.6">
  <g id="Arrow" transform="translate(15.3 0.3) rotate(90)">
    <path id="Path" d="M6,7a.908.908,0,0,1-.7-.3l-5-5A.967.967,0,0,1,.3.3.967.967,0,0,1,1.7.3l5,5a.967.967,0,0,1,0,1.4A.908.908,0,0,1,6,7Z" transform="translate(5)" fill="#3772e7" stroke="#3772e7" stroke-miterlimit="10" stroke-width="0.6"/>
    <path id="Path-2" data-name="Path" d="M1,7a.908.908,0,0,1-.7-.3.967.967,0,0,1,0-1.4l5-5A.967.967,0,0,1,6.7.3a.967.967,0,0,1,0,1.4l-5,5A.908.908,0,0,1,1,7Z" fill="#3772e7" stroke="#3772e7" stroke-miterlimit="10" stroke-width="0.6"/>
    <path id="Path-3" data-name="Path" d="M1,14c-.6,0-1-.311-1-.778V.778C0,.311.4,0,1,0S2,.311,2,.778V13.222C2,13.689,1.6,14,1,14Z" transform="translate(5 1)" fill="#3772e7" stroke="#3772e7" stroke-miterlimit="10" stroke-width="0.6"/>
  </g>
</svg>
