<?xml version="1.0" encoding="UTF-8"?>
<svg width="18px" height="18px" viewBox="0 0 18 18" version="1.1" xmlns="http://www.w3.org/2000/svg" xmlns:xlink="http://www.w3.org/1999/xlink">
    <title>Note</title>
    <g id="v2" stroke="none" stroke-width="1" fill="none" fill-rule="evenodd">
        <g id="Settings" transform="translate(-23.000000, -396.000000)" fill="#384264">
            <g id="Body" transform="translate(0.000000, 117.000000)">
                <g id="Privacy" transform="translate(0.000000, 275.000000)">
                    <g id="Note" transform="translate(23.000000, 4.000000)">
                        <path d="M13.5231025,12.6998025 C14.1223025,12.6109025 14.8942025,12.5936025 15.9539025,12.5905025 C15.2002025,14.4179025 13.6057025,15.7978025 11.6423025,16.2583025 L11.6378025,16.2594025 C11.6476025,15.4971025 11.6749025,14.9092025 11.7496025,14.4344025 C11.8472025,13.8132025 12.0141025,13.4699025 12.2634025,13.2207025 C12.5185025,12.9656025 12.8724025,12.7964025 13.5231025,12.6998025 Z M11.9703025,0.3437025 C10.0166025,-0.1145675 7.9834025,-0.1145675 6.0297525,0.3437025 C3.2084225,1.0054925 1.0055025,3.2084125 0.3437025,6.0297425 C-0.1145675,7.9834025 -0.1145675,10.0166025 0.3437025,11.9703025 C1.0055025,14.7916025 3.2084225,16.9945025 6.0297525,17.6563025 C7.6707025,18.0412025 9.3677025,18.1028025 11.0266025,17.8411025 C11.3428025,17.7913025 11.6575025,17.7297025 11.9703025,17.6563025 C14.7916025,16.9945025 16.9945025,14.7916025 17.6563025,11.9703025 C18.1146025,10.0166025 18.1146025,7.9834025 17.6563025,6.0297525 C16.9945025,3.2084225 14.7916025,1.0054925 11.9703025,0.3437025 Z M5.5537425,6.1281225 C5.5537425,5.8109025 5.8109025,5.5537425 6.1281225,5.5537425 L9.0000025,5.5537425 C9.3172025,5.5537425 9.5743025,5.8109025 9.5743025,6.1281225 C9.5743025,6.4453325 9.3172025,6.7024925 9.0000025,6.7024925 L6.1281225,6.7024925 C5.8109025,6.7024925 5.5537425,6.4453325 5.5537425,6.1281225 Z M5.5537425,9.0000025 C5.5537425,8.6828025 5.8109025,8.4256025 6.1281225,8.4256025 L10.9145025,8.4256025 C11.2318025,8.4256025 11.4889025,8.6828025 11.4889025,9.0000025 C11.4889025,9.3172025 11.2318025,9.5743025 10.9145025,9.5743025 L6.1281225,9.5743025 C5.8109025,9.5743025 5.5537425,9.3172025 5.5537425,9.0000025 Z" id="Shape"></path>
                    </g>
                </g>
            </g>
        </g>
    </g>
</svg>