<?xml version="1.0" encoding="UTF-8"?>
<svg width="24px" height="27px" viewBox="0 0 24 27" version="1.1" xmlns="http://www.w3.org/2000/svg" xmlns:xlink="http://www.w3.org/1999/xlink">
    <title>Notifications</title>
    <g id="v2" stroke="none" stroke-width="1" fill="none" fill-rule="evenodd">
        <g id="iphone-xs" transform="translate(-295.000000, -75.000000)" fill="#384264">
            <g id="Tab-bar-Copy-3" transform="translate(44.000000, 62.000000)">
                <g id="Notification@2x-1" transform="translate(251.247242, 13.565271)">
                    <path d="M6.85010438,22.0758778 C6.830655,21.9853111 6.81491437,21.8943111 6.80281063,21.8033111 C5.79693438,21.6776445 4.79472375,21.5113889 3.79852188,21.3046889 L3.30479812,21.2021334 C1.38162437,20.8031778 0,19.0799556 0,17.0804111 C0,15.6418889 0.7085725,14.3736667 1.78724375,13.6156223 C1.47927375,11.6090001 1.58934312,9.55780229 2.11119875,7.59590007 L2.18314562,7.32541341 C3.04409313,4.08870231 5.4826825,1.50927121 8.60611125,0.477923435 C10.5384562,-0.160145452 12.641375,-0.161965452 14.5748125,0.488453435 C17.6525,1.52384565 20.00655,4.07630898 20.8290875,7.27025007 L20.9254,7.64379785 C21.427375,9.59314784 21.5252687,11.6270556 21.2133313,13.6160556 C22.2916,14.3741 23,15.6421778 23,17.0804111 C23,19.0799556 21.6184188,20.8031778 19.6951875,21.2021334 L19.20155,21.3046889 C18.2052188,21.5113889 17.2029938,21.6776445 16.197175,21.8033111 C16.1851,21.8943111 16.1692875,21.9853111 16.1498812,22.0758778 L16.054575,22.5194667 C15.7062687,24.1417222 14.4770625,25.4173111 12.8913563,25.8019667 L12.6339,25.8643667 C11.8884125,26.0452111 11.1115875,26.0452111 10.3661,25.8643667 L10.1085,25.8019667 C8.52300938,25.4173111 7.29367375,24.1417222 6.9453675,22.5194667 L6.85010438,22.0758778 Z M8.85255625,22.0029333 C10.6153625,22.1265778 12.3846375,22.1265778 14.1474437,22.0029333 L14.1287562,22.0903222 C13.9421688,22.9590111 13.2839375,23.6420889 12.4348062,23.8480667 L12.17735,23.9104667 C11.7320125,24.0185111 11.2679875,24.0185111 10.82265,23.9104667 L10.5651938,23.8480667 C9.7160625,23.6420889 9.05783125,22.9590111 8.87124375,22.0903222 L8.85255625,22.0029333 Z" id="Shape"></path>
                </g>
            </g>
        </g>
    </g>
</svg>