<svg xmlns="http://www.w3.org/2000/svg" width="51" height="51" viewBox="0 0 51 51">
  <g id="Share" transform="translate(0 0)">
    <circle id="Oval" cx="25.5" cy="25.5" r="25.5" transform="translate(0 0)" fill="rgba(182,182,182,0)"/>
    <path id="Shape" d="M23.134,8.837,14.732.256a.851.851,0,0,0-1.46.6V5.287C.878,6.257.01,18.617,0,18.762a.851.851,0,0,0,.587.851.813.813,0,0,0,.264.043.851.851,0,0,0,.719-.4c.034-.072,3.426-5.29,11.7-5.605v4.358a.851.851,0,0,0,1.46.6l8.4-8.581A.851.851,0,0,0,23.134,8.837Z" transform="translate(14 15)" fill="#fff" stroke="#fff" stroke-miterlimit="10" stroke-width="1.4"/>
  </g>
</svg>
