<svg width="15" height="20" viewBox="0 0 15 20" fill="none" xmlns="http://www.w3.org/2000/svg">
<path fill-rule="evenodd" clip-rule="evenodd" d="M12.6101 1.23658C12.6101 0.553636 12.0694 0 11.4023 0H5.294C4.80528 0.000947032 4.3647 0.301652 4.17588 0.763147L0.089881 10.9455C0.0290087 11.093 -0.00153467 11.2518 0.000154679 11.4119C-0.00353388 11.7423 0.122092 12.0604 0.349009 12.2954C0.575927 12.5304 0.885259 12.6626 1.20801 12.6626H5.08004L3.9274 18.5204C3.81806 19.0792 4.0959 19.6422 4.60016 19.8835C5.10443 20.1249 5.70452 19.9822 6.05323 19.538L14.7084 8.5854C15.0185 8.21574 15.0877 7.69405 14.885 7.25311C14.6823 6.81217 14.2456 6.53422 13.7697 6.54327H10.5464L12.5135 1.71001C12.5766 1.56048 12.6094 1.39945 12.6101 1.23658Z" fill="white"/>
</svg>
