<svg xmlns="http://www.w3.org/2000/svg" width="17" height="23" viewBox="0 0 17 23">
  <path id="Shape" d="M5.214,22.866A1.437,1.437,0,0,1,4.451,21.3l1.306-6.736H1.369A1.346,1.346,0,0,1,.4,14.14,1.457,1.457,0,0,1,0,13.124a1.4,1.4,0,0,1,.1-.536L4.733.877A1.375,1.375,0,0,1,6,0h6.922a1.4,1.4,0,0,1,1.369,1.422,1.427,1.427,0,0,1-.109.544L11.953,7.525h3.653a1.363,1.363,0,0,1,1.264.816,1.467,1.467,0,0,1-.2,1.532l-9.809,12.6A1.351,1.351,0,0,1,5.793,23,1.324,1.324,0,0,1,5.214,22.866Z" transform="translate(0)" fill="#fff"/>
</svg>
