<?xml version="1.0" encoding="UTF-8"?>
<svg width="18px" height="18px" viewBox="0 0 18 18" version="1.1" xmlns="http://www.w3.org/2000/svg" xmlns:xlink="http://www.w3.org/1999/xlink">
    <title>Message - 4</title>
    <g id="v2" stroke="none" stroke-width="1" fill="none" fill-rule="evenodd">
        <g id="Settings" transform="translate(-24.000000, -579.000000)" fill="#384264">
            <g id="Body" transform="translate(0.000000, 117.000000)">
                <g id="Privacy" transform="translate(0.000000, 275.000000)">
                    <g id="Item-Copy-4" transform="translate(0.000000, 182.000000)">
                        <g id="Message---4" transform="translate(24.000000, 5.000000)">
                            <path d="M6.31745114,0.32481 C3.34246114,0.99738 1.00813114,3.28371 0.291931136,6.22642 C-0.0996888638,7.8355 -0.0961088638,9.5287 0.295511136,11.1378 C1.02290114,14.1265 3.16258114,16.6138 6.03293114,17.7728 L6.15805114,17.8233 C7.40020114,18.3249 8.82310114,17.7208 9.33270114,16.4902 C9.47300114,16.1515 9.80700114,15.9268 10.1761011,15.9268 L11.2999011,15.9268 C14.3564011,15.9268 17.0154011,13.8499 17.7328011,10.9021 C18.0891011,9.4382 18.0891011,7.9113 17.7328011,6.44741 L17.6387011,6.06088 C16.9472011,3.21958 14.6933011,1.01204 11.8209011,0.36264 L11.4173011,0.27141 C9.81660114,-0.09047 8.15430114,-0.09047 6.55362114,0.27141 L6.31745114,0.32481 Z M5.50194114,5.36669 C5.11716114,5.36669 4.80524114,5.67616 4.80524114,6.05792 C4.80524114,6.43968 5.11716114,6.74916 5.50194114,6.74916 L11.8884011,6.74916 C12.2732011,6.74916 12.5851011,6.43968 12.5851011,6.05792 C12.5851011,5.67616 12.2732011,5.36669 11.8884011,5.36669 L5.50194114,5.36669 Z M6.66312114,8.8229 C6.27834114,8.8229 5.96642114,9.1323 5.96642114,9.5141 C5.96642114,9.8958 6.27834114,10.2053 6.66312114,10.2053 L10.7272011,10.2053 C11.1120011,10.2053 11.4239011,9.8958 11.4239011,9.5141 C11.4239011,9.1323 11.1120011,8.8229 10.7272011,8.8229 L6.66312114,8.8229 Z" id="Shape"></path>
                        </g>
                    </g>
                </g>
            </g>
        </g>
    </g>
</svg>