<svg width="20" height="18" viewBox="0 0 20 18" fill="none" xmlns="http://www.w3.org/2000/svg">
<path d="M6.22806 9.0974C6.239 8.66707 5.98249 8.27237 5.57727 8.09604C5.17206 7.91971 4.69724 7.99616 4.37263 8.28999L2.5172 9.9878C2.07459 10.3924 2.05423 11.0681 2.4717 11.497C2.88918 11.9259 3.58641 11.9456 4.02902 11.5411L5.88445 9.84326C6.09712 9.64905 6.22084 9.3805 6.22806 9.0974Z" fill="white"/>
<path d="M14.6817 0.0229499C13.2291 -0.0202309 11.8187 0.500166 10.7635 1.46868C2.91686 8.64926 10.507 1.70381 7.05269 4.86533C6.91136 4.99698 6.82812 5.17655 6.8204 5.36637C6.80042 6.14093 8.20627 6.74709 9.09295 5.9345L11.7566 3.49809C11.963 3.30921 12.2384 3.20755 12.5222 3.21546C12.806 3.22337 13.0749 3.34021 13.2698 3.54028L18.5332 8.94629C21.6981 5.65545 19.4338 0.15746 14.6817 0.0229499Z" fill="white"/>
<path d="M10.2311 13.2095C10.2421 12.7792 9.98555 12.3845 9.58034 12.2081C9.17513 12.0318 8.7003 12.1082 8.3757 12.4021L6.52026 14.0999C6.23401 14.3616 6.11358 14.7514 6.20434 15.1225C6.29509 15.4936 6.58324 15.7896 6.96025 15.899C7.33725 16.0084 7.74583 15.9145 8.03208 15.6528L9.88751 13.955C10.1003 13.761 10.224 13.4925 10.2311 13.2095Z" fill="white"/>
<path d="M18.2709 9.6835C18.2352 9.65895 18.3462 9.76234 12.7503 4.01504C12.6853 3.94835 12.5956 3.90942 12.5009 3.90683C12.4063 3.90424 12.3145 3.93819 12.2457 4.00121L9.58211 6.43692C9.1624 6.8219 8.6018 7.02911 8.02415 7.01276C7.44649 6.99641 6.89933 6.75785 6.50352 6.34979C6.23887 6.07918 6.09619 5.71766 6.10697 5.34497C6.11775 4.97228 6.28109 4.61906 6.56097 4.36325L9.48327 1.68894C8.14412 0.296526 6.1381 -0.29433 4.22589 0.140435C2.31369 0.575199 0.788147 1.96901 0.227759 3.79331C-0.332629 5.61761 0.157957 7.59304 1.51348 8.9705L2.01944 9.48917C2.05084 9.45459 2.02266 9.48537 3.88058 7.78583C4.45068 7.26476 5.30181 7.15782 5.99017 7.52079C6.67854 7.88375 7.04818 8.63438 6.90636 9.38129C7.47899 9.30787 8.05315 9.50553 8.44965 9.91259C8.84614 10.3196 9.0167 10.8865 8.90809 11.4363C9.48097 11.3635 10.0551 11.5616 10.4515 11.969C10.8479 12.3764 11.0184 12.9434 10.9098 13.4934C11.468 13.4213 12.0287 13.6073 12.4242 13.9957C12.8197 14.3841 13.0041 14.93 12.9222 15.4699C13.3949 15.7361 13.9977 15.6256 14.3372 15.2103C14.6768 14.795 14.6501 14.2011 14.2746 13.816L9.52038 8.93453C9.43287 8.84466 9.40148 8.71637 9.43804 8.59799C9.47459 8.4796 9.57355 8.38911 9.69762 8.3606C9.82169 8.3321 9.95203 8.3699 10.0395 8.45977L14.7937 13.3426C15.0639 13.6199 15.4663 13.7365 15.8492 13.6484C16.2321 13.5604 16.5375 13.281 16.6502 12.9156C16.763 12.5501 16.666 12.1542 16.3958 11.8768L11.6413 6.99433C11.509 6.85501 11.5169 6.63849 11.659 6.5086C11.8012 6.37871 12.0247 6.38375 12.1604 6.51991L16.9153 11.4024C17.2218 11.7162 17.6931 11.8202 18.1095 11.6661C18.526 11.5119 18.8057 11.1299 18.8182 10.698C18.8018 10.2975 18.6009 9.92516 18.2709 9.6835Z" fill="white"/>
<path d="M11.1638 14.1673C10.8717 14.1583 10.5881 14.2629 10.376 14.4578L8.52057 16.1559C8.23432 16.4177 8.11393 16.8076 8.20474 17.1787C8.29555 17.5498 8.58377 17.8458 8.96083 17.9552C9.33789 18.0645 9.7465 17.9706 10.0328 17.7089L11.8882 16.011C12.2107 15.7141 12.3176 15.2584 12.1593 14.8555C12.001 14.4526 11.6085 14.1812 11.1638 14.1673Z" fill="white"/>
<path d="M8.22941 11.1534C8.24035 10.7231 7.98384 10.3284 7.57863 10.1521C7.17341 9.97574 6.69859 10.0522 6.37398 10.346L4.51855 12.0438C4.08364 12.45 4.06719 13.1197 4.48167 13.5455C4.89615 13.9712 5.58705 13.9942 6.03073 13.5971L7.88616 11.8989C8.09864 11.7048 8.22223 11.4364 8.22941 11.1534Z" fill="white"/>
</svg>
