<?xml version="1.0" encoding="UTF-8"?>
<svg width="16px" height="18px" viewBox="0 0 16 18" version="1.1" xmlns="http://www.w3.org/2000/svg" xmlns:xlink="http://www.w3.org/1999/xlink">
    <title>Edit</title>
    <g id="v2" stroke="none" stroke-width="1" fill="none" fill-rule="evenodd">
        <g id="Settings" transform="translate(-24.000000, -487.000000)" fill="#384264">
            <g id="Body" transform="translate(0.000000, 117.000000)">
                <g id="Privacy" transform="translate(0.000000, 275.000000)">
                    <g id="Item-Copy-3" transform="translate(0.000000, 91.000000)">
                        <g id="Edit" transform="translate(24.000000, 4.000000)">
                            <path d="M11.5395,-8.8817842e-16 C10.6303,-8.8817842e-16 9.7583,0.3599 9.1154,1.00052 L5.07222,5.02925 C3.21527,6.87957 1.89791,9.198 1.26098,11.7366 L1.06561,12.5153 C0.86299,13.3229 1.59714,14.0544 2.40764,13.8525 L3.1891,13.6578 C5.73681,13.0232 8.0635,11.7105 9.9205,9.8602 L13.9636,5.83146 C14.6066,5.19084 14.9678,4.32196 14.9678,3.41599 C14.9678,1.52939 13.4329,-8.8817842e-16 11.5395,-8.8817842e-16 Z M10.3776,4.57378 C10.9965,5.19047 11.714,5.45317 12.2462,5.36088 L12.8688,4.74049 C13.2213,4.38921 13.4194,3.91278 13.4194,3.41599 C13.4194,2.38149 12.5777,1.54286 11.5395,1.54286 C11.041,1.54286 10.5628,1.7402 10.2103,2.09149 L9.5877,2.71187 C9.495,3.24217 9.7587,3.95709 10.3776,4.57378 Z" id="Shape"></path>
                            <path d="M0,17.2286 C0,16.8025 0.34662,16.4571 0.77419,16.4571 L15.2258,16.4571 C15.6534,16.4571 16,16.8025 16,17.2286 C16,17.6546 15.6534,18 15.2258,18 L0.77419,18 C0.34662,18 0,17.6546 0,17.2286 Z" id="Path"></path>
                        </g>
                    </g>
                </g>
            </g>
        </g>
    </g>
</svg>