<svg id="Group" xmlns="http://www.w3.org/2000/svg" width="112" height="112" viewBox="0 0 112 112">
  <rect id="Rectangle" width="112" height="112" rx="30.154" fill="#3772e7"/>
  <path id="Shape" d="M16.294,69.949a4.369,4.369,0,0,1-2.383-4.8l4.082-20.607H4.279a4.247,4.247,0,0,1-3.043-1.292A4.387,4.387,0,0,1,0,40.146a4.15,4.15,0,0,1,.318-1.641L14.791,2.685A4.3,4.3,0,0,1,18.751,0H40.386a4.329,4.329,0,0,1,3.936,6.016l-6.967,17H48.771a4.272,4.272,0,0,1,3.95,2.5A4.411,4.411,0,0,1,52.1,30.2L21.44,68.734A4.251,4.251,0,0,1,18.1,70.359,4.2,4.2,0,0,1,16.294,69.949Z" transform="translate(30.154 21.538)" fill="#fff"/>
</svg>
