<svg width="20" height="14" viewBox="0 0 20 14" fill="none" xmlns="http://www.w3.org/2000/svg">
<path fill-rule="evenodd" clip-rule="evenodd" d="M3 0H17C18.6569 0 20 1.34315 20 3V11C20 12.6569 18.6569 14 17 14H3C1.34315 14 0 12.6569 0 11V3C0 1.34315 1.34315 0 3 0ZM5 10H9C9.55229 10 10 9.55229 10 9C10 8.44771 9.55229 8 9 8H5C4.44772 8 4 8.44771 4 9C4 9.55229 4.44772 10 5 10ZM15 10H13C12.4477 10 12 9.55229 12 9C12 8.44771 12.4477 8 13 8H15C15.5523 8 16 8.44771 16 9C16 9.55229 15.5523 10 15 10ZM2 4H18V3C18 2.44772 17.5523 2 17 2H3C2.44772 2 2 2.44772 2 3V4Z" fill="white"/>
</svg>
