<?xml version="1.0" encoding="UTF-8"?>
<svg width="20px" height="18px" viewBox="0 0 20 18" version="1.1" xmlns="http://www.w3.org/2000/svg" xmlns:xlink="http://www.w3.org/1999/xlink">
    <title>Privacy Copy 2@2x</title>
    <g id="v2" stroke="none" stroke-width="1" fill="none" fill-rule="evenodd">
        <g id="Settings-edited-3" transform="translate(-24.000000, -760.000000)" fill="#FF4E5D">
            <g id="Body" transform="translate(0.000000, 117.000000)">
                <g id="Privacy" transform="translate(0.000000, 275.000000)">
                    <g id="Item-Copy-5" transform="translate(24.000000, 364.000000)">
                        <g id="User-plus@2x" transform="translate(0.000000, 4.000000)">
                            <path d="M6.94286,0 C4.52858,0 2.57143,1.95716 2.57143,4.37143 C2.57143,6.7857 4.52858,8.7429 6.94286,8.7429 C9.3571,8.7429 11.3143,6.7857 11.3143,4.37143 C11.3143,1.95716 9.3571,0 6.94286,0 Z" id="Path" fill-rule="nonzero"></path>
                            <path d="M9.5226,10.6877 C7.8136,10.4149 6.07213,10.4149 4.36313,10.6877 L4.17994,10.7169 C1.77189,11.1012 0,13.1783 0,15.6168 C0,16.933 1.06698,18 2.38317,18 L11.5025,18 C12.8187,18 13.8857,16.933 13.8857,15.6168 C13.8857,13.1783 12.1138,11.1012 9.7058,10.7169 L9.5226,10.6877 Z" id="Path" fill-rule="nonzero"></path>
                            <path d="M15.1714,6.17143 C15.5975,6.17143 15.9429,6.51681 15.9429,6.94286 L15.9429,8.2286 L17.2286,8.2286 C17.6546,8.2286 18,8.574 18,9 C18,9.426 17.6546,9.7714 17.2286,9.7714 L15.9429,9.7714 L15.9429,11.0571 C15.9429,11.4832 15.5975,11.8286 15.1714,11.8286 C14.7454,11.8286 14.4,11.4832 14.4,11.0571 L14.4,9.7714 L13.1143,9.7714 C12.6882,9.7714 12.3429,9.426 12.3429,9 C12.3429,8.574 12.6882,8.2286 13.1143,8.2286 L14.4,8.2286 L14.4,6.94286 C14.4,6.51681 14.7454,6.17143 15.1714,6.17143 Z" id="Path" transform="translate(15.171450, 9.000015) rotate(47.000000) translate(-15.171450, -9.000015) "></path>
                        </g>
                    </g>
                </g>
            </g>
        </g>
    </g>
</svg>