<?xml version="1.0" encoding="UTF-8"?>
<svg width="22px" height="16px" viewBox="0 0 22 16" version="1.1" xmlns="http://www.w3.org/2000/svg" xmlns:xlink="http://www.w3.org/1999/xlink">
    <title>⭐️ Icons</title>
    <g id="v2" stroke="none" stroke-width="1" fill="none" fill-rule="evenodd">
        <g id="Settings" transform="translate(-21.000000, -306.000000)" fill="#384264">
            <g id="Body" transform="translate(0.000000, 117.000000)">
                <g id="Account-Settings" transform="translate(0.000000, 93.000000)">
                    <g id="Item" transform="translate(0.000000, 91.000000)">
                        <g id="3-User" transform="translate(21.000000, 5.000000)">
                            <path d="M10.9490292,3.55271368e-14 C13.2851349,3.55271368e-14 15.1583174,1.88306279 15.1583174,4.2335142 C15.1583174,6.58306504 13.2851349,8.46702839 10.9490292,8.46702839 C8.61292351,8.46702839 6.73974103,6.58306504 6.73974103,4.2335142 C6.73974103,1.88306279 8.61292351,3.55271368e-14 10.9490292,3.55271368e-14 Z M16.663937,0.706576311 C18.9203519,0.706576311 20.6923539,2.84179481 20.087957,5.21926289 C19.6805488,6.82135218 18.2058205,7.88490893 16.5627565,7.84168224 C16.3980024,7.83717946 16.2368299,7.82277056 16.0792391,7.79485332 C15.9655229,7.77504109 15.9082172,7.64626157 15.9726861,7.55080262 C16.599468,6.6241304 16.9567337,5.50744084 16.9567337,4.30970124 C16.9567337,3.05972938 16.5672336,1.89531035 15.8894137,0.938919783 C15.8670286,0.909201432 15.8518068,0.863273071 15.872401,0.82905194 C15.8903091,0.802035257 15.9243344,0.786725803 15.9547781,0.779521354 C16.1840012,0.733592994 16.4185967,0.706576311 16.663937,0.706576311 Z M5.33566002,0.706846478 C5.58100037,0.706846478 5.81649128,0.732962604 6.04481898,0.779791521 C6.07615807,0.78699597 6.10928797,0.801404868 6.12719603,0.829322106 C6.14868569,0.863543238 6.13256844,0.909471599 6.11107878,0.93918995 C5.43325892,1.89467996 5.04286334,3.05909899 5.04286334,4.30997141 C5.04286334,5.50771101 5.40012902,6.62350001 6.02691092,7.55107279 C6.09137992,7.64653173 6.03407414,7.77531125 5.920358,7.79512349 C5.76366252,7.82214017 5.60159463,7.83744963 5.43684053,7.84195241 C3.79377654,7.8851791 2.31904827,6.82162235 1.91253543,5.21953306 C1.3072432,2.84206498 3.07924518,0.706846478 5.33566002,0.706846478 Z" id="🌈-Secondary"></path>
                            <path d="M10.9490292,10.5399284 C14.3802124,10.5399284 17.3099701,11.0838643 17.3099701,13.2605084 C17.3099701,15.4362519 14.3990159,16 10.9490292,16 C7.51784599,16 4.58808829,15.4560641 4.58808829,13.27942 C4.58808829,11.1036765 7.49904253,10.5399284 10.9490292,10.5399284 Z M16.4350721,9.22925907 C17.7468371,9.20494405 19.1570964,9.38505527 19.6782208,9.51293424 C20.7822523,9.72996826 21.5084239,10.1721413 21.8092792,10.8169395 C22.0635736,11.3455659 22.0635736,11.9588446 21.8092792,12.4865705 C21.3490422,13.4852872 19.8653599,13.8058851 19.2887206,13.8887363 C19.169632,13.9067474 19.0738239,13.8031835 19.0863596,13.6834095 C19.3809471,10.9160006 17.0376781,9.6038904 16.4314905,9.30220411 C16.4055238,9.28869577 16.4001514,9.26708242 16.4028376,9.25447464 C16.4046284,9.24546908 16.4153733,9.23196074 16.4350721,9.22925907 Z M5.31858262,9.22750483 L5.56559944,9.22988946 C5.5852983,9.23169057 5.59514773,9.24519891 5.59693854,9.25420447 C5.59962474,9.26771281 5.59425233,9.2884256 5.56918105,9.3028345 C4.96209801,9.60452079 2.6188291,10.916631 2.91341659,13.6831393 C2.92595223,13.8038139 2.83103954,13.9064772 2.71195098,13.8884661 C2.13531163,13.8065155 0.651629328,13.485017 0.191392331,12.4872008 C-0.0637974436,11.9585744 -0.0637974436,11.3452957 0.191392331,10.8166693 C0.492247644,10.1718711 1.21752385,9.72969809 2.3215554,9.51266407 C2.84357518,9.3847851 4.25293906,9.20467389 5.56559944,9.22988946 Z" id="🌈-Primary"></path>
                        </g>
                    </g>
                </g>
            </g>
        </g>
    </g>
</svg>