<?xml version="1.0" encoding="UTF-8"?>
<svg width="26px" height="26px" viewBox="0 0 26 26" version="1.1" xmlns="http://www.w3.org/2000/svg" xmlns:xlink="http://www.w3.org/1999/xlink">
    <title>New unselected</title>
    <g id="v2" stroke="none" stroke-width="1" fill="none" fill-rule="evenodd">
        <g id="iphone-xs" transform="translate(-219.000000, -167.000000)">
            <g id="Tab-bar-Copy-4" transform="translate(44.000000, 154.000000)">
                <g id="New-unselected" transform="translate(175.000000, 13.000000)">
                    <path d="M25.2964024,6.40540541 C25.2964024,6.40540541 24.4604736,2.40540541 20.847104,1 C19.1482809,0.351351351 16.0472548,0.027027027 13.0001595,0 C9.9530642,0.027027027 6.85203802,0.351351351 5.15321499,1 C1.53984536,2.40540541 0.703916563,6.40540541 0.703916563,6.40540541 C0.164607663,8.67567568 -0.0241504524,10.972973 0.00281499259,13 C-0.0241504524,15.027027 0.137642218,17.3513514 0.703916563,19.5945946 C0.703916563,19.5945946 1.53984536,23.5945946 5.15321499,25 C6.85203802,25.6486486 9.9530642,25.972973 13.0001595,26 C16.0472548,25.972973 19.1482809,25.6756757 20.847104,25 C24.4604736,23.5945946 25.2964024,19.5945946 25.2964024,19.5945946 C25.8357113,17.3243243 26.0244694,15.027027 25.997504,13 C26.0244694,10.972973 25.8357113,8.67567568 25.2964024,6.40540541 Z" id="Path" fill="#AFB7C5"></path>
                    <path d="M14.3937338,17.7762986 C14.3937338,19.8499182 11.2506051,19.8499182 11.2506051,17.7762986 L11.2506051,14.4266053 L7.86875783,14.4266053 C5.79986301,14.4266053 5.79986301,11.2762986 7.86875783,11.2762986 L11.2506051,11.2762986 L11.2506051,7.88672801 C11.2506051,5.81310838 14.3937338,5.81310838 14.3937338,7.88672801 L14.3937338,11.2762986 L17.7755811,11.2762986 C19.8046895,11.2762986 19.8046895,14.4266053 17.7755811,14.4266053 L14.3937338,14.4266053 L14.3937338,17.7762986 Z" id="Path" fill="#FFFFFF"></path>
                </g>
            </g>
        </g>
    </g>
</svg>