<?xml version="1.0" encoding="UTF-8"?>
<svg width="26px" height="26px" viewBox="0 0 26 26" version="1.1" xmlns="http://www.w3.org/2000/svg" xmlns:xlink="http://www.w3.org/1999/xlink">
    <title>Home</title>
    <g id="v2" stroke="none" stroke-width="1" fill="none" fill-rule="evenodd">
        <g id="iphone-xs" transform="translate(-68.000000, -75.000000)" fill="#384264" fill-rule="nonzero">
            <g id="Tab-bar-Copy-3" transform="translate(44.000000, 62.000000)">
                <g id="Home@2x" transform="translate(24.000000, 13.000000)">
                    <path d="M25.7070667,12.6852556 C26.0976444,12.2922222 26.0976444,11.6547889 25.7070667,11.2617556 L17.4292444,2.92963667 C16.5822222,2.07695222 15.8758889,1.36592444 15.2397556,0.87737 C14.5682333,0.361688889 13.8588667,0 13,0 C12.1411333,0 11.4317667,0.361688889 10.7602444,0.87737 C10.1241111,1.36592444 9.41774889,2.07695222 8.57068333,2.92963667 L0.29289,11.2617556 C-0.09763,11.6547889 -0.09763,12.2922222 0.29289,12.6852556 C0.683424444,13.0782889 1.31658222,13.0782889 1.70710222,12.6852556 L2.27998333,12.1086333 L2.27998333,16.5146222 C2.27998333,20.8394333 5.23746889,24.5954222 9.42060889,25.5831333 C11.7749667,26.1389556 14.2250333,26.1389556 16.5793333,25.5831333 C20.7624444,24.5954222 23.7199444,20.8394333 23.7199444,16.5146222 L23.7199444,12.1086333 L24.2929556,12.6852556 C24.6833889,13.0782889 25.3166333,13.0782889 25.7070667,12.6852556 Z" id="Path"></path>
                </g>
            </g>
        </g>
    </g>
</svg>